<mxfile host="Electron" agent="Mozilla/5.0 (Windows NT 10.0; Win64; x64) AppleWebKit/537.36 (KHTML, like Gecko) draw.io/26.0.16 Chrome/132.0.6834.196 Electron/34.2.0 Safari/537.36" version="26.0.16">
  <diagram name="Page-1" id="LXCz1vaiDEL_8BQyv9Yu">
    <mxGraphModel dx="1219" dy="713" grid="1" gridSize="10" guides="1" tooltips="1" connect="1" arrows="1" fold="1" page="1" pageScale="1" pageWidth="850" pageHeight="1100" math="0" shadow="0">
      <root>
        <mxCell id="0" />
        <mxCell id="1" parent="0" />
        <mxCell id="-gWtfd-vX8l2uPv2sv0g-1" value="" style="rounded=0;whiteSpace=wrap;html=1;dashed=1;fillColor=none;strokeColor=light-dark(#474747, #ededed);" parent="1" vertex="1">
          <mxGeometry x="65" y="157" width="150" height="543" as="geometry" />
        </mxCell>
        <mxCell id="-gWtfd-vX8l2uPv2sv0g-2" value="&lt;font style=&quot;font-size: 22px;&quot;&gt;Sources&lt;/font&gt;" style="rounded=0;whiteSpace=wrap;html=1;fillColor=none;dashed=1;strokeColor=none;dashPattern=12 12;strokeWidth=0;" parent="1" vertex="1">
          <mxGeometry x="75" y="117" width="120" height="40" as="geometry" />
        </mxCell>
        <mxCell id="-gWtfd-vX8l2uPv2sv0g-3" value="" style="image;aspect=fixed;html=1;points=[];align=center;fontSize=12;image=img/lib/azure2/general/Folder_Blank.svg;" parent="1" vertex="1">
          <mxGeometry x="100" y="200" width="69" height="56.00000000000001" as="geometry" />
        </mxCell>
        <mxCell id="-gWtfd-vX8l2uPv2sv0g-4" value="" style="image;aspect=fixed;html=1;points=[];align=center;fontSize=12;image=img/lib/azure2/general/Folder_Blank.svg;" parent="1" vertex="1">
          <mxGeometry x="102.5" y="323.19" width="70" height="56.81" as="geometry" />
        </mxCell>
        <mxCell id="-gWtfd-vX8l2uPv2sv0g-5" value="" style="image;aspect=fixed;html=1;points=[];align=center;fontSize=12;image=img/lib/azure2/general/File.svg;" parent="1" vertex="1">
          <mxGeometry x="155" y="240" width="32.46" height="40" as="geometry" />
        </mxCell>
        <mxCell id="-gWtfd-vX8l2uPv2sv0g-6" value="" style="image;aspect=fixed;html=1;points=[];align=center;fontSize=12;image=img/lib/azure2/general/File.svg;" parent="1" vertex="1">
          <mxGeometry x="155" y="360" width="32.46" height="40" as="geometry" />
        </mxCell>
        <mxCell id="-gWtfd-vX8l2uPv2sv0g-8" value="&lt;font style=&quot;font-size: 15px;&quot;&gt;&lt;b&gt;CRM&lt;/b&gt;&lt;/font&gt;" style="rounded=0;whiteSpace=wrap;html=1;fillColor=none;dashed=1;strokeColor=none;dashPattern=12 12;strokeWidth=0;" parent="1" vertex="1">
          <mxGeometry x="60" y="270" width="150" height="30" as="geometry" />
        </mxCell>
        <mxCell id="-gWtfd-vX8l2uPv2sv0g-9" value="&lt;font style=&quot;font-size: 15px;&quot;&gt;ERP&lt;/font&gt;" style="rounded=0;whiteSpace=wrap;html=1;fillColor=none;dashed=1;strokeColor=none;dashPattern=12 12;strokeWidth=0;fontStyle=1" parent="1" vertex="1">
          <mxGeometry x="60" y="390" width="150" height="30" as="geometry" />
        </mxCell>
        <mxCell id="-gWtfd-vX8l2uPv2sv0g-11" value="" style="rounded=0;whiteSpace=wrap;html=1;dashed=1;fillColor=none;strokeColor=light-dark(#474747, #ededed);" parent="1" vertex="1">
          <mxGeometry x="255" y="157" width="680" height="543" as="geometry" />
        </mxCell>
        <mxCell id="-gWtfd-vX8l2uPv2sv0g-12" value="&lt;font style=&quot;font-size: 22px;&quot;&gt;Data Warehouse&lt;/font&gt;" style="rounded=0;whiteSpace=wrap;html=1;fillColor=none;dashed=1;strokeColor=none;dashPattern=12 12;strokeWidth=0;shadow=0;" parent="1" vertex="1">
          <mxGeometry x="495" y="117" width="200" height="40" as="geometry" />
        </mxCell>
        <mxCell id="-gWtfd-vX8l2uPv2sv0g-13" value="&lt;font style=&quot;font-size: 16px;&quot;&gt;Bronze Layer&lt;/font&gt;" style="rounded=0;whiteSpace=wrap;html=1;fillColor=#ffe6cc;strokeColor=#d79b00;dashed=1;labelPosition=center;verticalLabelPosition=middle;align=center;verticalAlign=middle;" parent="1" vertex="1">
          <mxGeometry x="295" y="180" width="180" height="30" as="geometry" />
        </mxCell>
        <mxCell id="-gWtfd-vX8l2uPv2sv0g-16" value="" style="rounded=0;whiteSpace=wrap;html=1;fillColor=none;strokeColor=#d79b00;dashed=1;labelPosition=center;verticalLabelPosition=middle;align=center;verticalAlign=middle;" parent="1" vertex="1">
          <mxGeometry x="735" y="220" width="180" height="470" as="geometry" />
        </mxCell>
        <mxCell id="-gWtfd-vX8l2uPv2sv0g-17" value="&lt;font style=&quot;font-size: 16px;&quot;&gt;Silver Layer&lt;/font&gt;" style="rounded=0;whiteSpace=wrap;html=1;fillColor=#f5f5f5;strokeColor=#666666;dashed=1;labelPosition=center;verticalLabelPosition=middle;align=center;verticalAlign=middle;fontColor=#333333;" parent="1" vertex="1">
          <mxGeometry x="520" y="180" width="175" height="30" as="geometry" />
        </mxCell>
        <mxCell id="-gWtfd-vX8l2uPv2sv0g-18" value="" style="rounded=0;whiteSpace=wrap;html=1;fillColor=none;strokeColor=#666666;dashed=1;labelPosition=center;verticalLabelPosition=middle;align=center;verticalAlign=middle;fontColor=#333333;" parent="1" vertex="1">
          <mxGeometry x="520" y="220" width="175" height="470" as="geometry" />
        </mxCell>
        <mxCell id="-gWtfd-vX8l2uPv2sv0g-19" value="" style="rounded=0;whiteSpace=wrap;html=1;fillColor=none;strokeColor=#d6b656;dashed=1;labelPosition=center;verticalLabelPosition=middle;align=center;verticalAlign=middle;" parent="1" vertex="1">
          <mxGeometry x="295" y="220" width="180" height="470" as="geometry" />
        </mxCell>
        <mxCell id="-gWtfd-vX8l2uPv2sv0g-20" value="&lt;font style=&quot;font-size: 16px;&quot;&gt;Gold Layer&lt;/font&gt;" style="rounded=0;whiteSpace=wrap;html=1;fillColor=#fff2cc;strokeColor=#d6b656;dashed=1;labelPosition=center;verticalLabelPosition=middle;align=center;verticalAlign=middle;" parent="1" vertex="1">
          <mxGeometry x="735" y="180" width="180" height="30" as="geometry" />
        </mxCell>
        <mxCell id="-gWtfd-vX8l2uPv2sv0g-21" value="" style="rounded=0;whiteSpace=wrap;html=1;dashed=1;fillColor=none;strokeColor=light-dark(#474747, #ededed);" parent="1" vertex="1">
          <mxGeometry x="985" y="157" width="150" height="543" as="geometry" />
        </mxCell>
        <mxCell id="-gWtfd-vX8l2uPv2sv0g-22" value="&lt;font style=&quot;font-size: 22px;&quot;&gt;Consume&lt;/font&gt;" style="rounded=0;whiteSpace=wrap;html=1;fillColor=none;dashed=1;strokeColor=none;dashPattern=12 12;strokeWidth=0;" parent="1" vertex="1">
          <mxGeometry x="990" y="117" width="120" height="40" as="geometry" />
        </mxCell>
        <mxCell id="-gWtfd-vX8l2uPv2sv0g-24" value="" style="endArrow=none;html=1;rounded=0;fillColor=#f5f5f5;strokeColor=#666666;" parent="1" edge="1">
          <mxGeometry width="50" height="50" relative="1" as="geometry">
            <mxPoint x="87.5" y="420" as="sourcePoint" />
            <mxPoint x="187.5" y="420" as="targetPoint" />
          </mxGeometry>
        </mxCell>
        <mxCell id="-gWtfd-vX8l2uPv2sv0g-25" value="&#xa;&lt;font style=&quot;forced-color-adjust: none; color: rgb(0, 0, 0); font-family: Helvetica; font-style: normal; font-variant-ligatures: normal; font-variant-caps: normal; font-weight: 400; letter-spacing: normal; orphans: 2; text-align: center; text-indent: 0px; text-transform: none; widows: 2; word-spacing: 0px; -webkit-text-stroke-width: 0px; white-space: normal; background-color: rgb(251, 251, 251); text-decoration-thickness: initial; text-decoration-style: initial; text-decoration-color: initial; font-size: 15px;&quot;&gt;Object type: CSV files&lt;/font&gt;&lt;div style=&quot;forced-color-adjust: none; color: rgb(0, 0, 0); font-family: Helvetica; font-size: 12px; font-style: normal; font-variant-ligatures: normal; font-variant-caps: normal; font-weight: 400; letter-spacing: normal; orphans: 2; text-align: center; text-indent: 0px; text-transform: none; widows: 2; word-spacing: 0px; -webkit-text-stroke-width: 0px; white-space: normal; background-color: rgb(251, 251, 251); text-decoration-thickness: initial; text-decoration-style: initial; text-decoration-color: initial;&quot;&gt;&lt;span style=&quot;forced-color-adjust: none; font-size: 15px;&quot;&gt;&lt;br style=&quot;forced-color-adjust: none;&quot;&gt;&lt;/span&gt;&lt;div style=&quot;forced-color-adjust: none;&quot;&gt;&lt;span style=&quot;forced-color-adjust: none; font-size: 15px;&quot;&gt;Interface: Files In Folder&lt;/span&gt;&lt;/div&gt;&lt;/div&gt;&#xa;&#xa;" style="text;html=1;align=center;verticalAlign=middle;whiteSpace=wrap;rounded=0;" parent="1" vertex="1">
          <mxGeometry x="67.5" y="470" width="145" height="80" as="geometry" />
        </mxCell>
        <mxCell id="-gWtfd-vX8l2uPv2sv0g-29" value="" style="html=1;verticalLabelPosition=bottom;align=center;labelBackgroundColor=#ffffff;verticalAlign=top;strokeWidth=2;strokeColor=#d79b00;shadow=0;dashed=0;shape=mxgraph.ios7.icons.data;fillColor=#ffe6cc;" parent="1" vertex="1">
          <mxGeometry x="360" y="230" width="40" height="60" as="geometry" />
        </mxCell>
        <mxCell id="-gWtfd-vX8l2uPv2sv0g-30" value="" style="html=1;verticalLabelPosition=bottom;align=center;labelBackgroundColor=#ffffff;verticalAlign=top;strokeWidth=2;strokeColor=#666666;shadow=0;dashed=0;shape=mxgraph.ios7.icons.data;fillColor=#f5f5f5;fontColor=#333333;" parent="1" vertex="1">
          <mxGeometry x="585" y="230" width="40" height="60" as="geometry" />
        </mxCell>
        <mxCell id="-gWtfd-vX8l2uPv2sv0g-31" value="" style="html=1;verticalLabelPosition=bottom;align=center;labelBackgroundColor=#ffffff;verticalAlign=top;strokeWidth=2;strokeColor=#d6b656;shadow=0;dashed=0;shape=mxgraph.ios7.icons.data;fillColor=#fff2cc;" parent="1" vertex="1">
          <mxGeometry x="790" y="230" width="40" height="60" as="geometry" />
        </mxCell>
        <mxCell id="-gWtfd-vX8l2uPv2sv0g-32" value="&lt;font style=&quot;font-size: 15px;&quot;&gt;Row Data&lt;/font&gt;" style="text;html=1;align=center;verticalAlign=middle;whiteSpace=wrap;rounded=0;" parent="1" vertex="1">
          <mxGeometry x="335" y="306.6" width="90" height="30" as="geometry" />
        </mxCell>
        <mxCell id="-gWtfd-vX8l2uPv2sv0g-33" value="&lt;font style=&quot;font-size: 15px;&quot;&gt;Cleaned, Standarized Data&lt;/font&gt;" style="text;html=1;align=center;verticalAlign=middle;whiteSpace=wrap;rounded=0;" parent="1" vertex="1">
          <mxGeometry x="542.5" y="306.6" width="125" height="30" as="geometry" />
        </mxCell>
        <mxCell id="-gWtfd-vX8l2uPv2sv0g-34" value="&lt;font style=&quot;font-size: 15px;&quot;&gt;Business Ready Data&lt;/font&gt;" style="text;html=1;align=center;verticalAlign=middle;whiteSpace=wrap;rounded=0;" parent="1" vertex="1">
          <mxGeometry x="747.5" y="306.6" width="125" height="30" as="geometry" />
        </mxCell>
        <mxCell id="-gWtfd-vX8l2uPv2sv0g-39" value="" style="endArrow=none;html=1;rounded=0;fillColor=#ffe6cc;strokeColor=#d79b00;" parent="1" edge="1">
          <mxGeometry relative="1" as="geometry">
            <mxPoint x="317.5" y="360" as="sourcePoint" />
            <mxPoint x="442.5" y="360.5" as="targetPoint" />
          </mxGeometry>
        </mxCell>
        <mxCell id="-gWtfd-vX8l2uPv2sv0g-40" value="" style="endArrow=none;html=1;rounded=0;fillColor=#f5f5f5;strokeColor=#666666;" parent="1" edge="1">
          <mxGeometry relative="1" as="geometry">
            <mxPoint x="535" y="360" as="sourcePoint" />
            <mxPoint x="660" y="360.5" as="targetPoint" />
          </mxGeometry>
        </mxCell>
        <mxCell id="-gWtfd-vX8l2uPv2sv0g-41" value="" style="endArrow=none;html=1;rounded=0;fillColor=#fff2cc;strokeColor=#d6b656;" parent="1" edge="1">
          <mxGeometry relative="1" as="geometry">
            <mxPoint x="757.5" y="360" as="sourcePoint" />
            <mxPoint x="882.5" y="360.5" as="targetPoint" />
            <Array as="points" />
          </mxGeometry>
        </mxCell>
        <mxCell id="-gWtfd-vX8l2uPv2sv0g-44" value="&lt;div style=&quot;text-align: left;&quot;&gt;&lt;font style=&quot;font-size: 11px;&quot;&gt;&lt;b style=&quot;background-color: transparent; color: light-dark(rgb(0, 0, 0), rgb(255, 255, 255));&quot;&gt;Object Type&lt;/b&gt;&lt;span style=&quot;background-color: transparent; color: light-dark(rgb(0, 0, 0), rgb(255, 255, 255));&quot;&gt;: Tables&lt;/span&gt;&lt;/font&gt;&lt;/div&gt;&lt;div&gt;&lt;div style=&quot;text-align: left;&quot;&gt;&lt;font style=&quot;font-size: 11px;&quot;&gt;&lt;br&gt;&lt;/font&gt;&lt;/div&gt;&lt;div&gt;&lt;div style=&quot;text-align: left;&quot;&gt;&lt;font style=&quot;font-size: 11px;&quot;&gt;&lt;b&gt;Load&lt;/b&gt;:&lt;/font&gt;&lt;/div&gt;&lt;div style=&quot;&quot;&gt;&lt;ul&gt;&lt;li&gt;&lt;font style=&quot;font-size: 11px;&quot;&gt;Batch Processing&lt;/font&gt;&lt;/li&gt;&lt;li&gt;&lt;font style=&quot;font-size: 11px;&quot;&gt;Full Load&amp;nbsp;&lt;/font&gt;&lt;/li&gt;&lt;li&gt;&lt;font style=&quot;font-size: 11px;&quot;&gt;Trunc &amp;amp; Insert&lt;/font&gt;&lt;/li&gt;&lt;/ul&gt;&lt;/div&gt;&lt;div style=&quot;text-align: left;&quot;&gt;&lt;b&gt;&lt;font style=&quot;font-size: 11px;&quot;&gt;No Transformation&lt;/font&gt;&lt;/b&gt;&lt;/div&gt;&lt;/div&gt;&lt;/div&gt;&lt;div style=&quot;text-align: left;&quot;&gt;&lt;b&gt;&lt;font style=&quot;font-size: 11px;&quot;&gt;&lt;br&gt;&lt;/font&gt;&lt;/b&gt;&lt;/div&gt;&lt;div style=&quot;text-align: left;&quot;&gt;&lt;font style=&quot;font-size: 11px;&quot;&gt;&lt;b&gt;Data Model&lt;/b&gt;: None (As it is)&lt;/font&gt;&lt;/div&gt;" style="text;html=1;align=center;verticalAlign=middle;whiteSpace=wrap;rounded=0;" parent="1" vertex="1">
          <mxGeometry x="305" y="360" width="150" height="200" as="geometry" />
        </mxCell>
        <mxCell id="-gWtfd-vX8l2uPv2sv0g-46" value="&lt;div style=&quot;text-align: left;&quot;&gt;&lt;font style=&quot;font-size: 13px;&quot;&gt;&lt;b style=&quot;background-color: transparent; color: light-dark(rgb(0, 0, 0), rgb(255, 255, 255));&quot;&gt;Object Type&lt;/b&gt;&lt;span style=&quot;background-color: transparent; color: light-dark(rgb(0, 0, 0), rgb(255, 255, 255));&quot;&gt;: Tables&lt;/span&gt;&lt;/font&gt;&lt;/div&gt;&lt;div&gt;&lt;div style=&quot;text-align: left;&quot;&gt;&lt;font style=&quot;font-size: 13px;&quot;&gt;&lt;br&gt;&lt;/font&gt;&lt;/div&gt;&lt;div&gt;&lt;div style=&quot;text-align: left;&quot;&gt;&lt;font style=&quot;font-size: 13px;&quot;&gt;&lt;b&gt;Load&lt;/b&gt;:&lt;/font&gt;&lt;/div&gt;&lt;div style=&quot;&quot;&gt;&lt;ul&gt;&lt;li&gt;&lt;font style=&quot;font-size: 13px;&quot;&gt;Batch Processing&lt;/font&gt;&lt;/li&gt;&lt;li&gt;&lt;font style=&quot;font-size: 13px;&quot;&gt;Full Load&amp;nbsp;&lt;/font&gt;&lt;/li&gt;&lt;li&gt;&lt;font style=&quot;font-size: 13px;&quot;&gt;Trunc &amp;amp; Insert&lt;/font&gt;&lt;/li&gt;&lt;/ul&gt;&lt;/div&gt;&lt;div style=&quot;text-align: left;&quot;&gt;&lt;b&gt;&lt;font style=&quot;font-size: 13px;&quot;&gt;Transformation:&lt;/font&gt;&lt;/b&gt;&lt;/div&gt;&lt;/div&gt;&lt;/div&gt;&lt;div style=&quot;text-align: left;&quot;&gt;&lt;ul&gt;&lt;li&gt;&lt;font style=&quot;font-size: 13px;&quot;&gt;Data Cleaning&amp;nbsp;&lt;/font&gt;&lt;/li&gt;&lt;li&gt;&lt;font style=&quot;font-size: 13px;&quot;&gt;Data Standarization&lt;/font&gt;&lt;/li&gt;&lt;li&gt;&lt;font style=&quot;font-size: 13px;&quot;&gt;Data Normalization&lt;/font&gt;&lt;/li&gt;&lt;li&gt;&lt;font style=&quot;font-size: 13px;&quot;&gt;Derived Columns&lt;/font&gt;&lt;/li&gt;&lt;li&gt;&lt;font style=&quot;font-size: 13px;&quot;&gt;Data Enrichment&lt;/font&gt;&lt;/li&gt;&lt;/ul&gt;&lt;/div&gt;&lt;div style=&quot;text-align: left;&quot;&gt;&lt;b&gt;&lt;font style=&quot;font-size: 13px;&quot;&gt;&lt;br&gt;&lt;/font&gt;&lt;/b&gt;&lt;/div&gt;&lt;div style=&quot;text-align: left;&quot;&gt;&lt;font style=&quot;font-size: 13px;&quot;&gt;&lt;b style=&quot;&quot;&gt;Data Model&lt;/b&gt;: None (As it is)&lt;/font&gt;&lt;/div&gt;" style="text;html=1;align=center;verticalAlign=middle;whiteSpace=wrap;rounded=0;" parent="1" vertex="1">
          <mxGeometry x="532.5" y="440" width="150" height="185" as="geometry" />
        </mxCell>
        <mxCell id="-gWtfd-vX8l2uPv2sv0g-48" value="&lt;div style=&quot;text-align: left;&quot;&gt;&lt;font style=&quot;font-size: 13px;&quot;&gt;&lt;b style=&quot;background-color: transparent; color: light-dark(rgb(0, 0, 0), rgb(255, 255, 255));&quot;&gt;Object Type&lt;/b&gt;&lt;span style=&quot;background-color: transparent; color: light-dark(rgb(0, 0, 0), rgb(255, 255, 255));&quot;&gt;: Views&lt;/span&gt;&lt;/font&gt;&lt;/div&gt;&lt;div&gt;&lt;div style=&quot;text-align: left;&quot;&gt;&lt;font style=&quot;font-size: 13px;&quot;&gt;&lt;br&gt;&lt;/font&gt;&lt;/div&gt;&lt;div&gt;&lt;div style=&quot;text-align: left;&quot;&gt;&lt;b&gt;&lt;font style=&quot;font-size: 13px;&quot;&gt;No Load&lt;/font&gt;&lt;/b&gt;&lt;/div&gt;&lt;div style=&quot;text-align: left;&quot;&gt;&lt;b&gt;&lt;font style=&quot;font-size: 13px;&quot;&gt;&lt;br&gt;&lt;/font&gt;&lt;/b&gt;&lt;/div&gt;&lt;div style=&quot;text-align: left;&quot;&gt;&lt;b&gt;&lt;font style=&quot;font-size: 13px;&quot;&gt;Transformation:&lt;/font&gt;&lt;/b&gt;&lt;/div&gt;&lt;/div&gt;&lt;/div&gt;&lt;div style=&quot;text-align: left;&quot;&gt;&lt;ul&gt;&lt;li&gt;&lt;font style=&quot;font-size: 13px;&quot;&gt;Data Integrations&lt;/font&gt;&lt;/li&gt;&lt;li&gt;&lt;font style=&quot;font-size: 13px;&quot;&gt;Aggregation&lt;/font&gt;&lt;/li&gt;&lt;li&gt;&lt;font style=&quot;font-size: 13px;&quot;&gt;Business Logic&lt;/font&gt;&lt;/li&gt;&lt;/ul&gt;&lt;/div&gt;&lt;div style=&quot;text-align: left;&quot;&gt;&lt;b&gt;&lt;font style=&quot;font-size: 13px;&quot;&gt;&lt;br&gt;&lt;/font&gt;&lt;/b&gt;&lt;/div&gt;&lt;div style=&quot;text-align: left;&quot;&gt;&lt;font style=&quot;font-size: 13px;&quot;&gt;&lt;b&gt;Data Model&lt;/b&gt;:&amp;nbsp;&lt;/font&gt;&lt;/div&gt;&lt;div style=&quot;text-align: left;&quot;&gt;&lt;ul&gt;&lt;li&gt;&lt;font style=&quot;font-size: 13px;&quot;&gt;Star Schema&lt;/font&gt;&lt;/li&gt;&lt;li&gt;&lt;font style=&quot;font-size: 13px;&quot;&gt;Flat Tables&lt;/font&gt;&lt;/li&gt;&lt;li&gt;&lt;font style=&quot;font-size: 13px;&quot;&gt;Aggregated Table&lt;/font&gt;&lt;/li&gt;&lt;/ul&gt;&lt;/div&gt;" style="text;html=1;align=center;verticalAlign=middle;whiteSpace=wrap;rounded=0;" parent="1" vertex="1">
          <mxGeometry x="747.5" y="370" width="150" height="270" as="geometry" />
        </mxCell>
        <mxCell id="-gWtfd-vX8l2uPv2sv0g-49" value="" style="shape=mxgraph.arrows.arrow_right;html=1;verticalLabelPosition=bottom;verticalAlign=top;strokeWidth=2;strokeColor=#6c8ebf;fillColor=#dae8fc;" parent="1" vertex="1">
          <mxGeometry x="215" y="360" width="50" height="40" as="geometry" />
        </mxCell>
        <mxCell id="-gWtfd-vX8l2uPv2sv0g-50" value="" style="shape=mxgraph.arrows.arrow_right;html=1;verticalLabelPosition=bottom;verticalAlign=top;strokeWidth=2;strokeColor=#6c8ebf;fillColor=#dae8fc;" parent="1" vertex="1">
          <mxGeometry x="475" y="360" width="50" height="40" as="geometry" />
        </mxCell>
        <mxCell id="-gWtfd-vX8l2uPv2sv0g-51" value="" style="shape=mxgraph.arrows.arrow_right;html=1;verticalLabelPosition=bottom;verticalAlign=top;strokeWidth=2;strokeColor=#6c8ebf;fillColor=#dae8fc;" parent="1" vertex="1">
          <mxGeometry x="695" y="360" width="50" height="40" as="geometry" />
        </mxCell>
        <mxCell id="-gWtfd-vX8l2uPv2sv0g-52" value="" style="shape=mxgraph.arrows.arrow_right;html=1;verticalLabelPosition=bottom;verticalAlign=top;strokeWidth=2;strokeColor=#6c8ebf;fillColor=#dae8fc;" parent="1" vertex="1">
          <mxGeometry x="935" y="360" width="50" height="40" as="geometry" />
        </mxCell>
        <mxCell id="-gWtfd-vX8l2uPv2sv0g-53" value="" style="shape=image;aspect=fixed;image=data:image/png,iVBORw0KGgoAAAANSUhEUgAAADIAAAAyCAYAAAAeP4ixAAAACXBIWXMAAAsTAAALEwEAmpwYAAAElklEQVR4nO2Y228UdRTHhxcfjE8mJmriAxo1/gXwgmAlWWLQLdaVF7tzzu833YbdbrE2LKFgvdE2oC0iRKBpsq1R0hYEXFhKW8Am0ohJlaIGRaVKoggxJsXL3mp6zG/Ynf5mdtcudGZozX6T87aZOZ891zmKUlZZZTkmn893h6qqKxCxGRF7EfEMIo5l7SQidiJiiHP+mDIf5ff7HwKA3QDwOyJSKQYAXyFifSAQuPN2+69wzu9GxL2I+E+pAAXsGgAwRVEW3RYIxtjjAPBLnmOME4u0EtvWS2znceL7RonvGSG+I0Zsa5RYOFIM6JSqqve6CoGILwBAxuRIsIH4O4OkHf6NtHjiP43vv0S8pYeQ11hhfqyurn7EFQgAUBFx2ng514i9dYh4bHJWgDygvsvEmtqttXNF07TFjkIg4nIAmDJeXBsiHj130wAmO/Y3sY4jhMhkmAvBYPAuxwrbVBO1dcT7firoXE08QRtPJ6l1NEVvf5am9rMpeuOTFNUPJotHZ9eQNc26HQHJdicjnbTu8TxnAvEEvflpio5czNDwxFSeDU1M0f6vM7Tp48JAvPU9GWSaMfaE3RAPyiklasLqxPrhBB38ZgYg/n2Ges6n6d2xNHWey+gAQ5dmgPZ+ntYjZ06zv4g1NMspdtZWEDHsDIhgA2mWwn5xOEGxbBRi32WoZTRFgeP5/3jdYFIHywFFz6epxvI73j1uLf5ltq0d8sQWuWx1UDgnHOu/kKHQieJ1kLMtI0ka+OEGTOPJ/N9jpE0G6bIFROSpPOwKzYnwUFKvjXUDs0PkbMPppN4E8tJLRGX3sAxy1Zapn10Ab6RVpG1urbZUO3TN1I4ZY4/aAdJrPHBbrzsg8YRplVFVtdIOkDNGfewccA9kQ4tc9PVzBgGAcQNk36h7IC/vkkE22xGRMQNkz4h7IE0dMkjEDpBTBkjHR+6BvPSKDBKwA6TTKPatUXdAxCK5rl4u9iftAAkZIOGIKyD8/W9NOxci3jNnEHEokFcG8VHkeFpt75cH4rhilxDxSwOkpcdZkNh1YqFGeztWTgCw3rTC9112Lq12xORoZADgAcUuiZONuHYYtdLUrhek7RAHfta/Om1fGGUhIpdrReSxrRCxSWKNr8oQfzDG7lcc0CJEPDGzCbOCK/2t1cUksc2mAUjZW5czEm0QACZMkXm9i7Sjf956JA5eITQPvxzIFsVJAcDD4mRjgmloJh794qa7k360k2rCdRhN0xaLk03eyyNt+keR9uHV4hH44CKx7QesLbao+f3+TY7CiLsTAERNxzrDGGE4oq/iYosVC6AoZHntsNh1URMAUCs/z68CrVhdRZ41vpjitMSnsLh2lPLvFkgdMSe6AoHAfbnn5WB0iKeraInHq5srMFkHlgmnEPHXWQCmxdoh8r/YsPMD1C1fPQOxxOOlpR4vPVW19rDipsQ3NiKuUVU1DAAbhamqWiO22FIXwIpnnjsqg7geGTtVUYaZp6ooR2aeaqXXN2AtftHNVj27tl9Z6Gm2dFWl6GSvKQtRFVmYBQ2R00qv75in8nlnl8qyyvof618WWjqbnxmQBgAAAABJRU5ErkJggg==;" parent="1" vertex="1">
          <mxGeometry x="1020" y="345" width="70" height="70" as="geometry" />
        </mxCell>
        <mxCell id="-gWtfd-vX8l2uPv2sv0g-54" value="" style="shape=image;aspect=fixed;image=data:image/png,iVBORw0KGgoAAAANSUhEUgAAADIAAAAyCAYAAAAeP4ixAAAACXBIWXMAAAsTAAALEwEAmpwYAAAIxklEQVR4nO1ZfYxU1RV/ogi2ougK7M45b4bdoNuu9gP5MAFTWylI1YSABbSt1taWpk0obRHF1oqYNIraKlhFqR9IpMg2LV+7977dBQaQT5m5dxZm5955986upQgS5UsQFpYyzXkzQ8ZN2/+YHRJOMsl79737cn73/M7v3DnXcS7aRSt/Syb3XJvQZqpQ9s9Sm2bnQjKZToPU9lGhzHtC2+NC26hQZh5dOxeCJYwZL1N2i0jbT6U2S0Xa3rl1z54r6Fl9NnupVOYMRcgpZ5PKzBXaHJPaZoW2p4S2caHNm0LZGSLl3yY7OvpLZVQinb7FKVfb8vyfHhbKTyasHSiVfVsq05LQ9vaENr+Ryi4R2uyS2nYFQNvMXKdcLTpl6qq1d951OFpXV5lMJq8U2uwWKfNY4bnw/TqhbVJof71UptEpV9s4cWIVC4dPcoBTDIB7w4fP27Zs+aGdazc8IpX5ndDmkFR2Vkzr6yjhKXJOuRoLhYZygEONodALHOAVXlPTxiORrFf7pU5+ww07mOu+yRAXbX3xpYb3G9hCp5yNId7GAA56odCo4H78+D5NiDdxxNcY4nGOeJpFIoYPHnyCI37KAXYyxCUc4DEG8INm1w055WIM8V4OkFlZUdGvpabmagawkgO0NVZVjWYAszniYnqPnGah0BiG+AQ9Z4hnGcBphugzxIUc8Y76urrLexQMB1gW0AtRMoC/RiORvjTuAXyNHKXrPMg/csTPGMBfKL+ikUhlA8AtHOBJhpggqjKAZ1uqqsI9AqQhHK6h1fUo+RFfZYjfX11VdV1DJFLJAPZx153AAfZzxL95iEMoigxgU/fvMNe9lSGuZwBdHHFbj1CPAWzhAHOJTgyxhQOc4AAxDtDJXHev57pji97dRDlC12sQwUOcyQE20mJwgPcZwMcsN/coR5xV7ziXlhLIU0SLwn1TOHw7BzjIELsChwAWeKGQS7kTRCcSmcQRV9MzBrCUosgqKwc0hcPDiGJNgwYNZIgjOGIrR9xMgEsChCPexwBWFa45wGGqMQxxfjPA9UQ5GuOItNpHGMAOBjCNDRlyVeEbsWHDelNEOMCMbmMLiKKUc+cdiIc4Pk+PeQygfXVV1c0McU8D4jc8xGs54tMsFCK6dTLETzyAb3X/BkP8A9FyjuP0+i/PfsEAPmLhcN15B8Jyqx2jJOcAkwkQR3ycotAYCr3DAfYGiR8KTaExjvj7IkcnMsQD/yvBKU+IuvQNouB5A0JJyXKqFSenOGKaI2Y5wApSKiqSHOAf54CHQi7xP5Bkih7AQYpe1HEuIwo1uu7UvCwvz0tzJ1EyT737zyeQxcx1Z5MCEYU8xKMUpSLa7V9bXT2oeM6KSKS/B5D0cnSjQrqBdgQM8Z9UWIMIIP6EAHafe16MEpZ43xAKPZ5XKErmTRzgDaIKgWCuO47ejQ4YcCWvrZ3sDRmymCHqvEy3cYDnOMCkHt22cMRnGMABSkaO+G8P4B4qiMH+ClFw132dIT7MEdeR400jR364/oEHox7iSFIlpxysmaQVoMsDWMUAdpM60XhDZWUkSO7q6i5eW3uyaejQNZTkDeHwNUL53xXaNjnlYisrKvpRwja67tx8tX7LA/hp/voIc12+ddHrxxJt+iWpzX6h7PZ42t4b353+Mt075WBzHKcXFUDaPwWqUlND2/VjLWPHHfZqar5Xj3iF8P0B9H8+Go1elkwmLxdp84BQVghl/yW1OROLffiFHgWRdZxLgq2366rgfwfAyXUTJrRtX7J0kdR2m9RmCr0ntR0tlU0Vz43rzFeFNh1S2dMi6df1LIhwmEAcZwBnGwHWUj5IZS11T+LajJfaGqVUP6HsL6lNRPNimczVUpv5UpkjUvu/FulMu9CZET0Gwrvxxg2suvpsy9hxJ9+bOWsajSeUuYOcz2azl9C90OYNqe0qkbYr4spMFyn7Q6HNR1IZJlXHYHpHKttGwEsOgk2f3qdlzJjW5lGjz2ye99wLUpvPiPuB48qsk9r+qvBuLBbrLbRdLbU9LZTZl+uo2O8Uf49yJaEzt5YURGLmzIEbp88w25Ys3UUrKtrs9UKbg4FD6cy3KXkLHcZsNtsrkcrcTW1TqczJ4Odn5gtlRtGzIiCZ1pS5uWQgfN/vE98e20y6X3CWelnkYCqVqhDaaKnsg9t9/yqp7M+ouyi0SdO40ObZoC+szNNSmw+ktp8IZXYE0VKmi9pFJQMilXmFOonRjo6+nxvXppnA5Whj/k79K6ksp/5vIpH4IkWMGnXFcxIpe1PQzKNGd8p0lgxEXNlhtIq7rB2+K52uIZUR2n9IavOiULad+r5SmQz1e2OpD6rOOawyPyYZLtznupH2CWrcCW1fi+3275bKJEoGRCrzMhW0XKM66B6mpLb18TbzlNR2XyJl3qLxRMpOKszJd+GV1GYySbDU9hGhzIFAxfIRImEQ2rxTMiBCWy+uMvcUj5FSEdWkNgsL0iuU3Uu8T/j+0Fw0MrsTfvsciqZUdmX3pBbKvkvvlQyIVPZt6rB/zgltad+0szhngpxQ5rdS2aPUhSfZTWhTL9Ppr3f/Zm4h7MeFelISEySttJ3o6OifA5H5OalPcT60qvZaoo/UxhfKnBDK7JXabqU6QxEVOjObqn28rT1CCihSmbHdty2lAaPMM1KZ1riy03LO+Q8Fmz9tXs3vmY5KZZaR1BLFCpK6I5WqiGtzPyU3AQtUjcRBB1F71OkJk3RUkDKdQpljebldI5V5kg53clU8M0Ioc1gq883ieUFt0WaKUHaF0PaYVPZdWoziiJbcWlXmK7lDTpuhfIgrFTq3myVVUvZHVPHJ8VwBtFvyUdgQ7Ld8fwCBL6la/T+LKzs82BQqe1SkzC6q8EKZLlrxvERvJCCUC8X/NygKwZxuRbLHLdrR0Vek7H1xZZqDRNfmFBXJHO3sy3QUR1GiepKX6OWUL065WywW601yS+Do2E1qu4CKZ6BcyqyjM/iyP6q+aBftojkXhP0HTxtjIpuxKf8AAAAASUVORK5CYII=;" parent="1" vertex="1">
          <mxGeometry x="255" y="90" width="70" height="70" as="geometry" />
        </mxCell>
        <mxCell id="-gWtfd-vX8l2uPv2sv0g-55" value="" style="shape=image;aspect=fixed;image=data:image/png,iVBORw0KGgoAAAANSUhEUgAAADAAAAAwCAYAAABXAvmHAAAACXBIWXMAAAsTAAALEwEAmpwYAAAEpUlEQVR4nO3ZaUwcZRzH8X1va90Trbc9KbTQQsvVAuUo902BQi3SRo0xxjQxxhhjjDEmxhhjjDHVmPRuLUdpi9UKlJYC5WjBoqbsSWG3HMtNOYX2Z+aZndmZ3eWJbsbNxvBPPu+/v808r1YmW77lW77//KyV8hTrebllqFKBf8JaKTdbK+RJMm+5gQq5ebBCgX+lXNEr85YbKFPAHTJvuf5zCrhD5i3Xd1YJd8i85e6fVsIdMm85y0kl3CHzlus9roQ7ZN5yPUeVcIfMW+7eD0q4Q+apW+gsSlnsLLQ87CzCwzuFDvZhkfEbo4CYa81Ef+kGdH+vpPLcgI4CszCQ15EvkIcFTnseZpvTYDqipPLYACZwwSFwoX2vQC7rdi7+InIIw7cqKo8N4OIcA4lb2Q6yMM9oy4L+GxWVxwYsFTjflukgA/OtdrqvVVQeG+AqcK41XawlzUEqtF+pqDw2YK7FMTCV1ZyKWSJF7GYy0fWlispjA5YKZCVhhtPESOTd/UJF5bEB9jhx4ExTAmYaWdONe+wa4ok/P1dReWzAtDCwwR7IisP0jThM3YgViMFUfQz++ExFJVkgtK+loOuQBdqDgLYE0L4CaA8A2pcBbRGgKwR0+wBdPqDLw6O7OZhtTiCRU/W7iQfXGdECUfj9UzWVdAO6Dpqdw/cLwgtIOHR7AV0OoMvGo64MPLgWZROJSU7dLl7nJ2oq6QaQ8GJBeJGL8FwSDn0WoM8E9OmYrNuJyauMCEzwwjFRy7rzsZpKwgHMr77f9rlw4fmCcOZXt4dDnwboUzFRG8aqCcN4TahACMarQ9DxkZpKwgHcd86F57kIz+DDoU8B9Ekkcrx6BzHG+HW7QDDaP1RTSTdA8EDt4dmC8HRROPSJgCEBY1eCMXYliBgltmH0F85W3P5ATSXhAPEDZb9zx/BkPhyGPYAhjkSO/swIxAgvACOXWbfeV1NJOCDXRXiaIDxJFA5DLGCIwcjlLbzhnzYL+GO4yh9t76mpJBzg/ECdw+P5cBh2A4YoDFf58YaqNmHoEseXaHlXTSXdANEDtYWTz4ULjxOFwxAJGHdh6KIvhi5uJKzEBlgvcNaj+R0NlYQDnB+oc3g0Hw7jTsAYTiKtF9bBWrkOg8Ra1nnGGtw8rKGScECyi/BYQXiUKBzGMMAYSiJZL2GggvMir+ltDZV0A1w8UOfwCD4cxhDAuB0D5S/w+sufR38Z5zmi8S0NlYQD4l2ERwrCw0XhMAUDpiD0lz2L/lJWX+kzrHOMp4mGNzVUEg5wfqDO4Tv4cJi2AaZAW+hq9P24GveJp+zOPon6NzRUEg6IdhEeZg8nv7o9HKYAwLSFRLJ8YDnD0fCuv04n3QAXD9Q5fCsfDtNmwOQHy2m1jQpmximGknftVQ2VhAMiXIQHC8IDReHo3gR0+8J8SgHzSQV6CTnrxBO8ukM+VBIOCDU7PlDncH8+HN0bsahdi94Tq9BznPO4zUr0HFsJ43ercLXEZ0m1JRrp/uSDITgJpiCzODxAEO7Hh6N7PRa71mDwkgr3jq1gHWU8xjMcWYGmwyrUFPu4dkDTW12sTpRswPIt3//4/gZZWW7KPYf93gAAAABJRU5ErkJggg==;" parent="1" vertex="1">
          <mxGeometry x="1012" y="212" width="78" height="78" as="geometry" />
        </mxCell>
        <mxCell id="-gWtfd-vX8l2uPv2sv0g-56" value="" style="shape=image;aspect=fixed;image=data:image/png,iVBORw0KGgoAAAANSUhEUgAAADAAAAAwCAYAAABXAvmHAAAACXBIWXMAAAsTAAALEwEAmpwYAAAGIUlEQVR4nO2Z2U8bVxjFUaVE6j/Q/6APVas+9Klpmq1Jm4WwQ0ICIQEPawrYJAGMbQYDXtjBYIPBgMNSVXmvVEXJY/rSJq1SKapSpWliQGkWAvZ49/hUd8ZjD8Y2mwlU5ZOOQGjG+p1vzuW7d5ySsld7tVf/78LE7IeYnJ3F5MxLTEx7WMv0r7DMVICm34u+Nt2G1NTfl7zf3H/jPfyAOZ2y0wXL1CcYn1kOjs8gOD6NoGUawbFpBEenwJqnvo82ceYvv+3EIy+OPHDhwD37852FN5v3sWNTj8XQnMxTCI7c5ASTtUx8z4lHXhsH/5MDn91d2mEDYzfPRKB5YE7DVrAmK1ijFQHj5H3xPSQ2h+8s4PMfbPj0xzendgZ81Poxa54ysCPWv3lgMfQkr6FJsIMTCBjG3dH3UzIliN49eM+t99kRq5EdtgYTQXMyTIAdGAfbP45dYQAE3mS9EzSJoAnw0CS81Vp4SprB9lnC0Gy/BYE+CwK9lt1hgDVNGsXQ4S4bxuEpb4XrfAN8Dd0h6DFePWMIdI9ysDElVcxLpAp9Hk3v31Z4GG9+FBicYFdEQ+h0nwU+2gAm7waYc/Xw3OhCoNOMQNcor05zfAMR6bbVAGuYGIpAWzjocKdJl3vG4JbqYc+5Bnt2HRwFcgQ6zAh0jMCvH4kblbI6xZfCk9hWA4F+yyMOulcE3c3HQ+iyq1aL5SwZlrJksF9sgF83DL+WV6LPpqLWA5nUp5/458i8SNqk9veMOYU8i6E5dZjhlfdgKVOKpWwZXDVa+NqN8GtM8LfzSgRGRcUp7eEikjqpyVbA3znqC0OHohHQj8CvIxqGvUiBtxm1cNVoeOg2I69WI/zqISTaQlBRBk79/BpJndT+TrM+FjQXD9JljQmOEhXenr8On3ooDE1+97UMwkcPItEWgoqKEHk6B+7ZbeSaLU9qf+dwll+ADuVZHI1wlwXolgi0r5nIAJ/KgERbCGq7ZgLoW/v9muE/40MPJYT2KQd4KQaQCJZaw8CmF3Wg3ZS3ClotgqYF6BCwAK0IqakfXjlR34YN5NH0fkqm7JDIlAubXtS+VuN3K/O8MWhvYx+8DUS9qwbXWgYkUoV+y4va1zL0OBwNMbRSBN3UH4FuFEHX9/K60QPv9Z4NG6Ckinnyt9I6xRebXtRelcGxfmge9p/0arzKkXHQnK51w1PXHTdCJN9pDxe5LseaDeuGjWlAOWAXQ3vF0KFo8F3m4R2lLZg7LsGLs1c5aI+si5e0K66BtWZDylbKJ+//I1aeX+fI8CK1Ci+zpVgqUsBdrYejQo35k+WwHSvBYkEjB+2p7eRV0xHXwHpnw6bK09g3G6vTLzNrMX+c4rpt+4qoBM+PFeP50WIspFbCXd3BQXvIz2+J9HENxMs3lRQD9b25wiIU55nIWaXBcnEzZ4bAPztyBc+OFcNVqQ1Du6/q4a7ScdooGJUMAygz7/PWdT/moSN59kiFaHRyXXaUtsJ2QoKnh4qwcKYS7iot3JU6XhVauMu1iP7vQrbRceGlqkPkGolUOZey1fLUdmeuzDMPzccj1OWrejhL2/D06GU8OViIxfx6DtpdroG7TAN3qUb8BHTrONwgdEbQpiSj3DV6fSxoLh5Clyu0eHtBjicHC/Aq5zoH7aba4SKStCFqwuqEJxFLEqlyjsAn7ZhJttOuKr1XyLMYmut0mdDp9hXQrpKQils3dKDZlnJV6BzxoHlgEXRxK68rrXBdVnPaeQNl7b8JeV4vtKtIDdelFjgvtSR8C0FFLextOVK6qbb2cDTiQRPgohYeupCIhrOAhvMinfAtBBW1sJN+pCTlKKQ/cJa0LYeBr4i6XMR3eSV0M68LzXDmq5DoLURe1MJO+pFSKGcxnessUrMJoS9EoJ3nQzq3sQPM4WQeKVeZKFTnOAvpRQ44LrSSg2byiBRgchX2jRjY9iJxYvKbaWe+6hcmX+URoBkBOpeDBpPTBCabSH53re3zjpUjT/V1bOgmMFlyMJlyMFkNqbvy2xmhmGx58yrojEZOjrTGtl377Yy4mIymk0xG421HesNrR1qDw362/u5yeqTz72SB7tVe7VXKf7b+BXjFGslWwCrCAAAAAElFTkSuQmCC;" parent="1" vertex="1">
          <mxGeometry x="1023" y="488" width="72" height="72" as="geometry" />
        </mxCell>
        <mxCell id="-gWtfd-vX8l2uPv2sv0g-57" value="&lt;font style=&quot;font-size: 15px;&quot;&gt;BI &amp;amp; Analytics&lt;/font&gt;" style="text;html=1;align=center;verticalAlign=middle;whiteSpace=wrap;rounded=0;" parent="1" vertex="1">
          <mxGeometry x="1005" y="300" width="110" height="30" as="geometry" />
        </mxCell>
        <mxCell id="-gWtfd-vX8l2uPv2sv0g-58" value="&lt;font style=&quot;font-size: 15px;&quot;&gt;Ad-Hoc&lt;/font&gt;&lt;div&gt;&lt;span style=&quot;font-size: 15px;&quot;&gt;SQL queries&lt;/span&gt;&lt;/div&gt;" style="text;html=1;align=center;verticalAlign=middle;whiteSpace=wrap;rounded=0;" parent="1" vertex="1">
          <mxGeometry x="1005" y="430" width="110" height="30" as="geometry" />
        </mxCell>
        <mxCell id="-gWtfd-vX8l2uPv2sv0g-59" value="&lt;span style=&quot;font-size: 15px;&quot;&gt;Machine Learning&lt;/span&gt;" style="text;html=1;align=center;verticalAlign=middle;whiteSpace=wrap;rounded=0;" parent="1" vertex="1">
          <mxGeometry x="999" y="565" width="120" height="60" as="geometry" />
        </mxCell>
        <mxCell id="2hRiPb3BoR5jZtUX5wMU-1" value="&lt;font style=&quot;font-size: 25px;&quot;&gt;&lt;b&gt;Data Archeticture&lt;/b&gt;&lt;/font&gt;" style="text;html=1;align=center;verticalAlign=middle;whiteSpace=wrap;rounded=0;" vertex="1" parent="1">
          <mxGeometry x="11.230000000000004" y="40" width="293.77" height="30" as="geometry" />
        </mxCell>
      </root>
    </mxGraphModel>
  </diagram>
</mxfile>
